<?xml version="1.0" encoding="utf-8"?>
<!-- Generator: Adobe Illustrator 19.0.0, SVG Export Plug-In . SVG Version: 6.00 Build 0)  -->
<svg version="1.1" id="Layer_1" xmlns="http://www.w3.org/2000/svg" xmlns:xlink="http://www.w3.org/1999/xlink" x="0px" y="0px" width="16px" height="16px"
	 viewBox="0 0 512 512" style="enable-background:new 0 0 512 512;" xml:space="preserve">
<style type="text/css">
	.st0{fill:url(#XMLID_11_);}
	.st1{fill:url(#XMLID_14_);}
	.st2{fill:url(#XMLID_15_);}
	.st3{fill:url(#XMLID_17_);}
	.st4{display:none;}
	.st5{display:inline;}
	.st6{fill:url(#XMLID_18_);}
	.st7{fill:url(#XMLID_19_);}
	.st8{fill:url(#XMLID_20_);}
	.st9{fill:url(#XMLID_22_);}
	.st10{fill:url(#XMLID_39_);}
	.st11{fill:url(#XMLID_40_);}
	.st12{fill:url(#XMLID_41_);}
	.st13{fill:url(#XMLID_42_);}
	.st14{fill:url(#XMLID_43_);}
	.st15{fill:url(#XMLID_44_);}
	.st16{fill:url(#XMLID_45_);}
	.st17{fill:url(#XMLID_46_);}
	.st18{fill:url(#XMLID_47_);}
</style>
<g id="XMLID_12_">
	<linearGradient id="XMLID_11_" gradientUnits="userSpaceOnUse" x1="164.5736" y1="31.3315" x2="612.7816" y2="473.9602">
		<stop  offset="0" style="stop-color:#8DC641"/>
		<stop  offset="0.4909" style="stop-color:#67B545"/>
		<stop  offset="1" style="stop-color:#45B649"/>
	</linearGradient>
	<polygon id="XMLID_38_" class="st0" points="241.3,35.1 276.5,134.7 319.5,256.3 461.3,256.8 	"/>
	<linearGradient id="XMLID_14_" gradientUnits="userSpaceOnUse" x1="239.642" y1="366.5837" x2="461.3415" y2="366.5837">
		<stop  offset="5.102040e-003" style="stop-color:#29B3E8"/>
		<stop  offset="0.5663" style="stop-color:#008CC0"/>
		<stop  offset="1" style="stop-color:#00649F"/>
	</linearGradient>
	<polygon id="XMLID_6_" class="st1" points="319.5,256.3 239.6,476.9 461.3,256.8 	"/>
	<linearGradient id="XMLID_15_" gradientUnits="userSpaceOnUse" x1="50.6585" y1="129.7366" x2="276.4926" y2="129.7366">
		<stop  offset="5.102040e-003" style="stop-color:#FBB03C"/>
		<stop  offset="0.5663" style="stop-color:#F79421"/>
		<stop  offset="1" style="stop-color:#F15C27"/>
	</linearGradient>
	<polygon id="XMLID_16_" class="st2" points="241.3,35.1 50.7,224.3 161.3,180.4 276.5,134.7 	"/>
	<linearGradient id="XMLID_17_" gradientUnits="userSpaceOnUse" x1="117.6593" y1="366.2055" x2="284.0729" y2="366.2055">
		<stop  offset="0" style="stop-color:#EF3D25"/>
		<stop  offset="0.5" style="stop-color:#EB1F4E"/>
		<stop  offset="1" style="stop-color:#B66128"/>
	</linearGradient>
	<polygon id="XMLID_13_" class="st3" points="230.6,322.7 117.7,256.2 239.8,476.2 284.1,354.1 	"/>
</g>
<g id="XMLID_1_" class="st4">
	<g id="XMLID_8_" class="st5">
		<linearGradient id="XMLID_18_" gradientUnits="userSpaceOnUse" x1="393.0513" y1="479.4359" x2="393.7668" y2="498.3963">
			<stop  offset="5.102040e-003" style="stop-color:#29B3E8"/>
			<stop  offset="0.5663" style="stop-color:#008CC0"/>
			<stop  offset="1" style="stop-color:#00649F"/>
		</linearGradient>
		<path id="XMLID_27_" class="st6" d="M392.4,474.8c-2.2,0-4.9,0-7.2,0v18.3c2.2,0,4.9,0,7.2,0c6.4,0,9.2-4.7,9.1-9.3
			C401.5,479.3,398.7,474.8,392.4,474.8z M392.4,489.8h-3.8v-11.7h3.8c4,0,5.6,2.8,5.7,5.7C398.2,486.8,396.6,489.8,392.4,489.8z"/>
		<linearGradient id="XMLID_19_" gradientUnits="userSpaceOnUse" x1="405.6588" y1="478.9602" x2="406.3742" y2="497.9205">
			<stop  offset="5.102040e-003" style="stop-color:#29B3E8"/>
			<stop  offset="0.5663" style="stop-color:#008CC0"/>
			<stop  offset="1" style="stop-color:#00649F"/>
		</linearGradient>
		<rect id="XMLID_28_" x="404.1" y="474.8" class="st7" width="3.4" height="18.3"/>
		<linearGradient id="XMLID_20_" gradientUnits="userSpaceOnUse" x1="418.3513" y1="478.4812" x2="419.0668" y2="497.4416">
			<stop  offset="5.102040e-003" style="stop-color:#29B3E8"/>
			<stop  offset="0.5663" style="stop-color:#008CC0"/>
			<stop  offset="1" style="stop-color:#00649F"/>
		</linearGradient>
		<path id="XMLID_29_" class="st8" d="M419.2,485.6h4.7v3.2c-1.4,1.1-2.7,1.5-4.1,1.5c-4.5,0-6.3-3.1-6.3-6.1c0-3.8,2.4-6.7,6.3-6.7
			c1.6,0,3.4,0.7,4.6,1.8l2.1-2.2c-1.9-1.9-4.3-2.8-6.8-2.8c-6.5,0-9.7,4.8-9.7,9.9c0,4.8,2.8,9.3,9.7,9.3c3.2,0,5.5-1.2,7.3-3.3
			v-7.7h-7.8V485.6z"/>
		<linearGradient id="XMLID_22_" gradientUnits="userSpaceOnUse" x1="431.3464" y1="477.9908" x2="432.0619" y2="496.9512">
			<stop  offset="5.102040e-003" style="stop-color:#29B3E8"/>
			<stop  offset="0.5663" style="stop-color:#008CC0"/>
			<stop  offset="1" style="stop-color:#00649F"/>
		</linearGradient>
		<rect id="XMLID_30_" x="429.9" y="474.8" class="st9" width="3.4" height="18.3"/>
		<linearGradient id="XMLID_39_" gradientUnits="userSpaceOnUse" x1="443.8498" y1="477.519" x2="444.5652" y2="496.4793">
			<stop  offset="5.102040e-003" style="stop-color:#29B3E8"/>
			<stop  offset="0.5663" style="stop-color:#008CC0"/>
			<stop  offset="1" style="stop-color:#00649F"/>
		</linearGradient>
		<path id="XMLID_31_" class="st10" d="M436.3,478h5.8v15.1h3.4V478h5.8v-3.1c-5.3,0-9.8,0-15,0V478z"/>
		<linearGradient id="XMLID_40_" gradientUnits="userSpaceOnUse" x1="461.0059" y1="476.8716" x2="461.7213" y2="495.8319">
			<stop  offset="5.102040e-003" style="stop-color:#29B3E8"/>
			<stop  offset="0.5663" style="stop-color:#008CC0"/>
			<stop  offset="1" style="stop-color:#00649F"/>
		</linearGradient>
		<polygon id="XMLID_32_" class="st11" points="459.7,474.8 451.5,493.1 455.3,493.1 461.6,478.7 467.9,493.1 471.7,493.1 
			463.5,474.8 		"/>
		<linearGradient id="XMLID_41_" gradientUnits="userSpaceOnUse" x1="479.3733" y1="476.1785" x2="480.0887" y2="495.1388">
			<stop  offset="5.102040e-003" style="stop-color:#29B3E8"/>
			<stop  offset="0.5663" style="stop-color:#008CC0"/>
			<stop  offset="1" style="stop-color:#00649F"/>
		</linearGradient>
		<polygon id="XMLID_33_" class="st12" points="477,474.8 473.5,474.8 473.5,493.1 486.4,493.1 486.4,489.9 477,489.9 		"/>
		<linearGradient id="XMLID_42_" gradientUnits="userSpaceOnUse" x1="496.5156" y1="475.5316" x2="497.2311" y2="494.4919">
			<stop  offset="5.102040e-003" style="stop-color:#29B3E8"/>
			<stop  offset="0.5663" style="stop-color:#008CC0"/>
			<stop  offset="1" style="stop-color:#00649F"/>
		</linearGradient>
		<path id="XMLID_36_" class="st13" d="M496.8,474.5c-6.3,0-9.4,4.8-9.4,9.6s3,9.4,9.4,9.4s9.3-4.7,9.4-9.5
			C506.3,479.3,503.1,474.5,496.8,474.5z M496.8,490.4c-4.3,0-5.9-3.2-6-6.2c-0.1-3.1,1.7-6.6,6-6.6c4.3,0,6,3.4,6,6.5
			C502.8,487.1,501.2,490.4,496.8,490.4z"/>
		<linearGradient id="XMLID_43_" gradientUnits="userSpaceOnUse" x1="460.9934" y1="476.8721" x2="461.7089" y2="495.8324">
			<stop  offset="5.102040e-003" style="stop-color:#FBB03C"/>
			<stop  offset="0.5663" style="stop-color:#F79421"/>
			<stop  offset="1" style="stop-color:#F15C27"/>
		</linearGradient>
		<polygon id="XMLID_9_" class="st14" points="461.6,483.9 457.6,493.1 465.6,493.1 		"/>
	</g>
	<g id="XMLID_2_" class="st5">
		<linearGradient id="XMLID_44_" gradientUnits="userSpaceOnUse" x1="343.9676" y1="459.963" x2="391.793" y2="507.1931">
			<stop  offset="0" style="stop-color:#8DC641"/>
			<stop  offset="0.4909" style="stop-color:#67B545"/>
			<stop  offset="1" style="stop-color:#45B649"/>
		</linearGradient>
		<polygon id="XMLID_7_" class="st15" points="352.2,460.4 355.9,471 360.5,484 375.6,484 		"/>
		<linearGradient id="XMLID_45_" gradientUnits="userSpaceOnUse" x1="351.9776" y1="495.7356" x2="375.6338" y2="495.7356">
			<stop  offset="5.102040e-003" style="stop-color:#29B3E8"/>
			<stop  offset="0.5663" style="stop-color:#008CC0"/>
			<stop  offset="1" style="stop-color:#00649F"/>
		</linearGradient>
		<polygon id="XMLID_5_" class="st16" points="360.5,484 352,507.5 375.6,484 		"/>
		<linearGradient id="XMLID_46_" gradientUnits="userSpaceOnUse" x1="331.8124" y1="470.4632" x2="355.9097" y2="470.4632">
			<stop  offset="5.102040e-003" style="stop-color:#FBB03C"/>
			<stop  offset="0.5663" style="stop-color:#F79421"/>
			<stop  offset="1" style="stop-color:#F15C27"/>
		</linearGradient>
		<polygon id="XMLID_3_" class="st17" points="352.2,460.4 331.8,480.6 343.6,475.9 355.9,471 		"/>
		<linearGradient id="XMLID_47_" gradientUnits="userSpaceOnUse" x1="338.9616" y1="495.6953" x2="356.7186" y2="495.6953">
			<stop  offset="0" style="stop-color:#EF3D25"/>
			<stop  offset="0.5" style="stop-color:#EB1F4E"/>
			<stop  offset="1" style="stop-color:#B66128"/>
		</linearGradient>
		<polygon id="XMLID_4_" class="st18" points="351,491.1 339,484 352,507.4 356.7,494.4 		"/>
	</g>
</g>
</svg>
